<?xml version="1.0" encoding="UTF-8"?>
<svg xmlns="http://www.w3.org/2000/svg" xmlns:xlink="http://www.w3.org/1999/xlink"
     width="610" height="490" viewBox="0 0 610 490">
<defs>
</defs>
<rect x="5" y="5" width="600" height="480" stroke-width="10" fill="none" stroke="black" />
<path d="M5,455 L35,455" stroke="black" stroke-linecap="round" stroke-width="4" />
<path d="M5,335 L35,335" stroke="black" stroke-linecap="round" stroke-width="4" />
<path d="M5,245 L35,245" stroke="black" stroke-linecap="round" stroke-width="4" />
<path d="M5,65 L35,65" stroke="black" stroke-linecap="round" stroke-width="4" />
<path d="M5,35 L35,35" stroke="black" stroke-linecap="round" stroke-width="4" />
<path d="M35,425 L65,425" stroke="black" stroke-linecap="round" stroke-width="4" />
<path d="M35,395 L65,395" stroke="black" stroke-linecap="round" stroke-width="4" />
<path d="M35,365 L35,335" stroke="black" stroke-linecap="round" stroke-width="4" />
<path d="M35,365 L65,365" stroke="black" stroke-linecap="round" stroke-width="4" />
<path d="M35,335 L35,305" stroke="black" stroke-linecap="round" stroke-width="4" />
<path d="M35,305 L35,275" stroke="black" stroke-linecap="round" stroke-width="4" />
<path d="M35,305 L65,305" stroke="black" stroke-linecap="round" stroke-width="4" />
<path d="M35,275 L65,275" stroke="black" stroke-linecap="round" stroke-width="4" />
<path d="M35,245 L35,215" stroke="black" stroke-linecap="round" stroke-width="4" />
<path d="M35,215 L35,185" stroke="black" stroke-linecap="round" stroke-width="4" />
<path d="M35,215 L65,215" stroke="black" stroke-linecap="round" stroke-width="4" />
<path d="M35,185 L65,185" stroke="black" stroke-linecap="round" stroke-width="4" />
<path d="M35,155 L35,125" stroke="black" stroke-linecap="round" stroke-width="4" />
<path d="M35,155 L65,155" stroke="black" stroke-linecap="round" stroke-width="4" />
<path d="M35,95 L65,95" stroke="black" stroke-linecap="round" stroke-width="4" />
<path d="M65,485 L65,455" stroke="black" stroke-linecap="round" stroke-width="4" />
<path d="M65,455 L65,425" stroke="black" stroke-linecap="round" stroke-width="4" />
<path d="M65,455 L95,455" stroke="black" stroke-linecap="round" stroke-width="4" />
<path d="M65,395 L65,365" stroke="black" stroke-linecap="round" stroke-width="4" />
<path d="M65,335 L65,305" stroke="black" stroke-linecap="round" stroke-width="4" />
<path d="M65,335 L95,335" stroke="black" stroke-linecap="round" stroke-width="4" />
<path d="M65,305 L95,305" stroke="black" stroke-linecap="round" stroke-width="4" />
<path d="M65,275 L65,245" stroke="black" stroke-linecap="round" stroke-width="4" />
<path d="M65,275 L95,275" stroke="black" stroke-linecap="round" stroke-width="4" />
<path d="M65,185 L65,155" stroke="black" stroke-linecap="round" stroke-width="4" />
<path d="M65,185 L95,185" stroke="black" stroke-linecap="round" stroke-width="4" />
<path d="M65,125 L65,95" stroke="black" stroke-linecap="round" stroke-width="4" />
<path d="M65,95 L95,95" stroke="black" stroke-linecap="round" stroke-width="4" />
<path d="M65,65 L95,65" stroke="black" stroke-linecap="round" stroke-width="4" />
<path d="M65,35 L65,5" stroke="black" stroke-linecap="round" stroke-width="4" />
<path d="M95,425 L125,425" stroke="black" stroke-linecap="round" stroke-width="4" />
<path d="M95,395 L95,365" stroke="black" stroke-linecap="round" stroke-width="4" />
<path d="M95,365 L125,365" stroke="black" stroke-linecap="round" stroke-width="4" />
<path d="M95,305 L125,305" stroke="black" stroke-linecap="round" stroke-width="4" />
<path d="M95,275 L95,245" stroke="black" stroke-linecap="round" stroke-width="4" />
<path d="M95,245 L95,215" stroke="black" stroke-linecap="round" stroke-width="4" />
<path d="M95,245 L125,245" stroke="black" stroke-linecap="round" stroke-width="4" />
<path d="M95,185 L95,155" stroke="black" stroke-linecap="round" stroke-width="4" />
<path d="M95,125 L125,125" stroke="black" stroke-linecap="round" stroke-width="4" />
<path d="M95,95 L95,65" stroke="black" stroke-linecap="round" stroke-width="4" />
<path d="M95,65 L95,35" stroke="black" stroke-linecap="round" stroke-width="4" />
<path d="M95,35 L95,5" stroke="black" stroke-linecap="round" stroke-width="4" />
<path d="M125,455 L125,425" stroke="black" stroke-linecap="round" stroke-width="4" />
<path d="M125,425 L155,425" stroke="black" stroke-linecap="round" stroke-width="4" />
<path d="M125,395 L125,365" stroke="black" stroke-linecap="round" stroke-width="4" />
<path d="M125,395 L155,395" stroke="black" stroke-linecap="round" stroke-width="4" />
<path d="M125,335 L125,305" stroke="black" stroke-linecap="round" stroke-width="4" />
<path d="M125,275 L155,275" stroke="black" stroke-linecap="round" stroke-width="4" />
<path d="M125,245 L125,215" stroke="black" stroke-linecap="round" stroke-width="4" />
<path d="M125,185 L125,155" stroke="black" stroke-linecap="round" stroke-width="4" />
<path d="M125,185 L155,185" stroke="black" stroke-linecap="round" stroke-width="4" />
<path d="M125,155 L125,125" stroke="black" stroke-linecap="round" stroke-width="4" />
<path d="M125,125 L125,95" stroke="black" stroke-linecap="round" stroke-width="4" />
<path d="M125,65 L155,65" stroke="black" stroke-linecap="round" stroke-width="4" />
<path d="M125,35 L125,5" stroke="black" stroke-linecap="round" stroke-width="4" />
<path d="M155,455 L155,425" stroke="black" stroke-linecap="round" stroke-width="4" />
<path d="M155,425 L155,395" stroke="black" stroke-linecap="round" stroke-width="4" />
<path d="M155,395 L185,395" stroke="black" stroke-linecap="round" stroke-width="4" />
<path d="M155,365 L185,365" stroke="black" stroke-linecap="round" stroke-width="4" />
<path d="M155,335 L155,305" stroke="black" stroke-linecap="round" stroke-width="4" />
<path d="M155,335 L185,335" stroke="black" stroke-linecap="round" stroke-width="4" />
<path d="M155,305 L155,275" stroke="black" stroke-linecap="round" stroke-width="4" />
<path d="M155,245 L185,245" stroke="black" stroke-linecap="round" stroke-width="4" />
<path d="M155,215 L155,185" stroke="black" stroke-linecap="round" stroke-width="4" />
<path d="M155,185 L155,155" stroke="black" stroke-linecap="round" stroke-width="4" />
<path d="M155,185 L185,185" stroke="black" stroke-linecap="round" stroke-width="4" />
<path d="M155,125 L155,95" stroke="black" stroke-linecap="round" stroke-width="4" />
<path d="M155,95 L185,95" stroke="black" stroke-linecap="round" stroke-width="4" />
<path d="M155,65 L185,65" stroke="black" stroke-linecap="round" stroke-width="4" />
<path d="M155,35 L155,5" stroke="black" stroke-linecap="round" stroke-width="4" />
<path d="M185,455 L215,455" stroke="black" stroke-linecap="round" stroke-width="4" />
<path d="M185,425 L215,425" stroke="black" stroke-linecap="round" stroke-width="4" />
<path d="M185,395 L185,365" stroke="black" stroke-linecap="round" stroke-width="4" />
<path d="M185,365 L215,365" stroke="black" stroke-linecap="round" stroke-width="4" />
<path d="M185,335 L185,305" stroke="black" stroke-linecap="round" stroke-width="4" />
<path d="M185,335 L215,335" stroke="black" stroke-linecap="round" stroke-width="4" />
<path d="M185,275 L215,275" stroke="black" stroke-linecap="round" stroke-width="4" />
<path d="M185,245 L185,215" stroke="black" stroke-linecap="round" stroke-width="4" />
<path d="M185,245 L215,245" stroke="black" stroke-linecap="round" stroke-width="4" />
<path d="M185,215 L185,185" stroke="black" stroke-linecap="round" stroke-width="4" />
<path d="M185,155 L185,125" stroke="black" stroke-linecap="round" stroke-width="4" />
<path d="M185,155 L215,155" stroke="black" stroke-linecap="round" stroke-width="4" />
<path d="M185,95 L185,65" stroke="black" stroke-linecap="round" stroke-width="4" />
<path d="M185,65 L185,35" stroke="black" stroke-linecap="round" stroke-width="4" />
<path d="M185,35 L185,5" stroke="black" stroke-linecap="round" stroke-width="4" />
<path d="M185,35 L215,35" stroke="black" stroke-linecap="round" stroke-width="4" />
<path d="M215,455 L245,455" stroke="black" stroke-linecap="round" stroke-width="4" />
<path d="M215,425 L215,395" stroke="black" stroke-linecap="round" stroke-width="4" />
<path d="M215,395 L215,365" stroke="black" stroke-linecap="round" stroke-width="4" />
<path d="M215,395 L245,395" stroke="black" stroke-linecap="round" stroke-width="4" />
<path d="M215,365 L215,335" stroke="black" stroke-linecap="round" stroke-width="4" />
<path d="M215,305 L245,305" stroke="black" stroke-linecap="round" stroke-width="4" />
<path d="M215,275 L215,245" stroke="black" stroke-linecap="round" stroke-width="4" />
<path d="M215,275 L245,275" stroke="black" stroke-linecap="round" stroke-width="4" />
<path d="M215,215 L245,215" stroke="black" stroke-linecap="round" stroke-width="4" />
<path d="M215,185 L215,155" stroke="black" stroke-linecap="round" stroke-width="4" />
<path d="M215,185 L245,185" stroke="black" stroke-linecap="round" stroke-width="4" />
<path d="M215,155 L245,155" stroke="black" stroke-linecap="round" stroke-width="4" />
<path d="M215,125 L215,95" stroke="black" stroke-linecap="round" stroke-width="4" />
<path d="M215,95 L215,65" stroke="black" stroke-linecap="round" stroke-width="4" />
<path d="M215,65 L245,65" stroke="black" stroke-linecap="round" stroke-width="4" />
<path d="M245,455 L245,425" stroke="black" stroke-linecap="round" stroke-width="4" />
<path d="M245,425 L275,425" stroke="black" stroke-linecap="round" stroke-width="4" />
<path d="M245,395 L245,365" stroke="black" stroke-linecap="round" stroke-width="4" />
<path d="M245,395 L275,395" stroke="black" stroke-linecap="round" stroke-width="4" />
<path d="M245,335 L275,335" stroke="black" stroke-linecap="round" stroke-width="4" />
<path d="M245,305 L245,275" stroke="black" stroke-linecap="round" stroke-width="4" />
<path d="M245,305 L275,305" stroke="black" stroke-linecap="round" stroke-width="4" />
<path d="M245,275 L245,245" stroke="black" stroke-linecap="round" stroke-width="4" />
<path d="M245,245 L245,215" stroke="black" stroke-linecap="round" stroke-width="4" />
<path d="M245,245 L275,245" stroke="black" stroke-linecap="round" stroke-width="4" />
<path d="M245,215 L245,185" stroke="black" stroke-linecap="round" stroke-width="4" />
<path d="M245,125 L275,125" stroke="black" stroke-linecap="round" stroke-width="4" />
<path d="M245,95 L275,95" stroke="black" stroke-linecap="round" stroke-width="4" />
<path d="M245,65 L245,35" stroke="black" stroke-linecap="round" stroke-width="4" />
<path d="M245,65 L275,65" stroke="black" stroke-linecap="round" stroke-width="4" />
<path d="M275,485 L275,455" stroke="black" stroke-linecap="round" stroke-width="4" />
<path d="M275,455 L305,455" stroke="black" stroke-linecap="round" stroke-width="4" />
<path d="M275,425 L275,395" stroke="black" stroke-linecap="round" stroke-width="4" />
<path d="M275,425 L305,425" stroke="black" stroke-linecap="round" stroke-width="4" />
<path d="M275,395 L275,365" stroke="black" stroke-linecap="round" stroke-width="4" />
<path d="M275,335 L275,305" stroke="black" stroke-linecap="round" stroke-width="4" />
<path d="M275,335 L305,335" stroke="black" stroke-linecap="round" stroke-width="4" />
<path d="M275,275 L305,275" stroke="black" stroke-linecap="round" stroke-width="4" />
<path d="M275,245 L275,215" stroke="black" stroke-linecap="round" stroke-width="4" />
<path d="M275,245 L305,245" stroke="black" stroke-linecap="round" stroke-width="4" />
<path d="M275,185 L275,155" stroke="black" stroke-linecap="round" stroke-width="4" />
<path d="M275,155 L305,155" stroke="black" stroke-linecap="round" stroke-width="4" />
<path d="M275,125 L275,95" stroke="black" stroke-linecap="round" stroke-width="4" />
<path d="M275,95 L275,65" stroke="black" stroke-linecap="round" stroke-width="4" />
<path d="M275,65 L275,35" stroke="black" stroke-linecap="round" stroke-width="4" />
<path d="M275,65 L305,65" stroke="black" stroke-linecap="round" stroke-width="4" />
<path d="M305,455 L305,425" stroke="black" stroke-linecap="round" stroke-width="4" />
<path d="M305,455 L335,455" stroke="black" stroke-linecap="round" stroke-width="4" />
<path d="M305,425 L305,395" stroke="black" stroke-linecap="round" stroke-width="4" />
<path d="M305,425 L335,425" stroke="black" stroke-linecap="round" stroke-width="4" />
<path d="M305,395 L335,395" stroke="black" stroke-linecap="round" stroke-width="4" />
<path d="M305,365 L305,335" stroke="black" stroke-linecap="round" stroke-width="4" />
<path d="M305,365 L335,365" stroke="black" stroke-linecap="round" stroke-width="4" />
<path d="M305,305 L305,275" stroke="black" stroke-linecap="round" stroke-width="4" />
<path d="M305,305 L335,305" stroke="black" stroke-linecap="round" stroke-width="4" />
<path d="M305,215 L305,185" stroke="black" stroke-linecap="round" stroke-width="4" />
<path d="M305,185 L305,155" stroke="black" stroke-linecap="round" stroke-width="4" />
<path d="M305,155 L305,125" stroke="black" stroke-linecap="round" stroke-width="4" />
<path d="M305,125 L335,125" stroke="black" stroke-linecap="round" stroke-width="4" />
<path d="M305,95 L335,95" stroke="black" stroke-linecap="round" stroke-width="4" />
<path d="M305,65 L305,35" stroke="black" stroke-linecap="round" stroke-width="4" />
<path d="M305,65 L335,65" stroke="black" stroke-linecap="round" stroke-width="4" />
<path d="M335,395 L335,365" stroke="black" stroke-linecap="round" stroke-width="4" />
<path d="M335,395 L365,395" stroke="black" stroke-linecap="round" stroke-width="4" />
<path d="M335,365 L335,335" stroke="black" stroke-linecap="round" stroke-width="4" />
<path d="M335,365 L365,365" stroke="black" stroke-linecap="round" stroke-width="4" />
<path d="M335,305 L335,275" stroke="black" stroke-linecap="round" stroke-width="4" />
<path d="M335,305 L365,305" stroke="black" stroke-linecap="round" stroke-width="4" />
<path d="M335,275 L335,245" stroke="black" stroke-linecap="round" stroke-width="4" />
<path d="M335,275 L365,275" stroke="black" stroke-linecap="round" stroke-width="4" />
<path d="M335,245 L335,215" stroke="black" stroke-linecap="round" stroke-width="4" />
<path d="M335,245 L365,245" stroke="black" stroke-linecap="round" stroke-width="4" />
<path d="M335,215 L335,185" stroke="black" stroke-linecap="round" stroke-width="4" />
<path d="M335,215 L365,215" stroke="black" stroke-linecap="round" stroke-width="4" />
<path d="M335,155 L335,125" stroke="black" stroke-linecap="round" stroke-width="4" />
<path d="M335,125 L335,95" stroke="black" stroke-linecap="round" stroke-width="4" />
<path d="M335,125 L365,125" stroke="black" stroke-linecap="round" stroke-width="4" />
<path d="M335,95 L335,65" stroke="black" stroke-linecap="round" stroke-width="4" />
<path d="M335,95 L365,95" stroke="black" stroke-linecap="round" stroke-width="4" />
<path d="M335,65 L335,35" stroke="black" stroke-linecap="round" stroke-width="4" />
<path d="M335,65 L365,65" stroke="black" stroke-linecap="round" stroke-width="4" />
<path d="M335,35 L335,5" stroke="black" stroke-linecap="round" stroke-width="4" />
<path d="M365,485 L365,455" stroke="black" stroke-linecap="round" stroke-width="4" />
<path d="M365,425 L365,395" stroke="black" stroke-linecap="round" stroke-width="4" />
<path d="M365,425 L395,425" stroke="black" stroke-linecap="round" stroke-width="4" />
<path d="M365,365 L365,335" stroke="black" stroke-linecap="round" stroke-width="4" />
<path d="M365,335 L365,305" stroke="black" stroke-linecap="round" stroke-width="4" />
<path d="M365,335 L395,335" stroke="black" stroke-linecap="round" stroke-width="4" />
<path d="M365,275 L395,275" stroke="black" stroke-linecap="round" stroke-width="4" />
<path d="M365,215 L365,185" stroke="black" stroke-linecap="round" stroke-width="4" />
<path d="M365,185 L395,185" stroke="black" stroke-linecap="round" stroke-width="4" />
<path d="M365,155 L365,125" stroke="black" stroke-linecap="round" stroke-width="4" />
<path d="M365,155 L395,155" stroke="black" stroke-linecap="round" stroke-width="4" />
<path d="M365,65 L365,35" stroke="black" stroke-linecap="round" stroke-width="4" />
<path d="M365,65 L395,65" stroke="black" stroke-linecap="round" stroke-width="4" />
<path d="M365,35 L395,35" stroke="black" stroke-linecap="round" stroke-width="4" />
<path d="M395,455 L395,425" stroke="black" stroke-linecap="round" stroke-width="4" />
<path d="M395,455 L425,455" stroke="black" stroke-linecap="round" stroke-width="4" />
<path d="M395,395 L425,395" stroke="black" stroke-linecap="round" stroke-width="4" />
<path d="M395,365 L395,335" stroke="black" stroke-linecap="round" stroke-width="4" />
<path d="M395,365 L425,365" stroke="black" stroke-linecap="round" stroke-width="4" />
<path d="M395,335 L395,305" stroke="black" stroke-linecap="round" stroke-width="4" />
<path d="M395,335 L425,335" stroke="black" stroke-linecap="round" stroke-width="4" />
<path d="M395,275 L395,245" stroke="black" stroke-linecap="round" stroke-width="4" />
<path d="M395,215 L395,185" stroke="black" stroke-linecap="round" stroke-width="4" />
<path d="M395,215 L425,215" stroke="black" stroke-linecap="round" stroke-width="4" />
<path d="M395,185 L425,185" stroke="black" stroke-linecap="round" stroke-width="4" />
<path d="M395,155 L395,125" stroke="black" stroke-linecap="round" stroke-width="4" />
<path d="M395,155 L425,155" stroke="black" stroke-linecap="round" stroke-width="4" />
<path d="M395,95 L395,65" stroke="black" stroke-linecap="round" stroke-width="4" />
<path d="M395,95 L425,95" stroke="black" stroke-linecap="round" stroke-width="4" />
<path d="M395,35 L425,35" stroke="black" stroke-linecap="round" stroke-width="4" />
<path d="M425,455 L455,455" stroke="black" stroke-linecap="round" stroke-width="4" />
<path d="M425,425 L425,395" stroke="black" stroke-linecap="round" stroke-width="4" />
<path d="M425,425 L455,425" stroke="black" stroke-linecap="round" stroke-width="4" />
<path d="M425,395 L425,365" stroke="black" stroke-linecap="round" stroke-width="4" />
<path d="M425,395 L455,395" stroke="black" stroke-linecap="round" stroke-width="4" />
<path d="M425,335 L425,305" stroke="black" stroke-linecap="round" stroke-width="4" />
<path d="M425,305 L455,305" stroke="black" stroke-linecap="round" stroke-width="4" />
<path d="M425,275 L425,245" stroke="black" stroke-linecap="round" stroke-width="4" />
<path d="M425,275 L455,275" stroke="black" stroke-linecap="round" stroke-width="4" />
<path d="M425,245 L425,215" stroke="black" stroke-linecap="round" stroke-width="4" />
<path d="M425,245 L455,245" stroke="black" stroke-linecap="round" stroke-width="4" />
<path d="M425,185 L455,185" stroke="black" stroke-linecap="round" stroke-width="4" />
<path d="M425,155 L425,125" stroke="black" stroke-linecap="round" stroke-width="4" />
<path d="M425,125 L455,125" stroke="black" stroke-linecap="round" stroke-width="4" />
<path d="M425,65 L425,35" stroke="black" stroke-linecap="round" stroke-width="4" />
<path d="M425,65 L455,65" stroke="black" stroke-linecap="round" stroke-width="4" />
<path d="M455,365 L485,365" stroke="black" stroke-linecap="round" stroke-width="4" />
<path d="M455,335 L455,305" stroke="black" stroke-linecap="round" stroke-width="4" />
<path d="M455,335 L485,335" stroke="black" stroke-linecap="round" stroke-width="4" />
<path d="M455,305 L485,305" stroke="black" stroke-linecap="round" stroke-width="4" />
<path d="M455,275 L485,275" stroke="black" stroke-linecap="round" stroke-width="4" />
<path d="M455,215 L455,185" stroke="black" stroke-linecap="round" stroke-width="4" />
<path d="M455,185 L485,185" stroke="black" stroke-linecap="round" stroke-width="4" />
<path d="M455,155 L455,125" stroke="black" stroke-linecap="round" stroke-width="4" />
<path d="M455,155 L485,155" stroke="black" stroke-linecap="round" stroke-width="4" />
<path d="M455,95 L485,95" stroke="black" stroke-linecap="round" stroke-width="4" />
<path d="M455,65 L455,35" stroke="black" stroke-linecap="round" stroke-width="4" />
<path d="M485,455 L515,455" stroke="black" stroke-linecap="round" stroke-width="4" />
<path d="M485,425 L485,395" stroke="black" stroke-linecap="round" stroke-width="4" />
<path d="M485,395 L485,365" stroke="black" stroke-linecap="round" stroke-width="4" />
<path d="M485,395 L515,395" stroke="black" stroke-linecap="round" stroke-width="4" />
<path d="M485,365 L485,335" stroke="black" stroke-linecap="round" stroke-width="4" />
<path d="M485,335 L515,335" stroke="black" stroke-linecap="round" stroke-width="4" />
<path d="M485,245 L515,245" stroke="black" stroke-linecap="round" stroke-width="4" />
<path d="M485,215 L515,215" stroke="black" stroke-linecap="round" stroke-width="4" />
<path d="M485,155 L485,125" stroke="black" stroke-linecap="round" stroke-width="4" />
<path d="M485,155 L515,155" stroke="black" stroke-linecap="round" stroke-width="4" />
<path d="M485,125 L485,95" stroke="black" stroke-linecap="round" stroke-width="4" />
<path d="M485,125 L515,125" stroke="black" stroke-linecap="round" stroke-width="4" />
<path d="M485,95 L485,65" stroke="black" stroke-linecap="round" stroke-width="4" />
<path d="M485,95 L515,95" stroke="black" stroke-linecap="round" stroke-width="4" />
<path d="M485,65 L485,35" stroke="black" stroke-linecap="round" stroke-width="4" />
<path d="M485,65 L515,65" stroke="black" stroke-linecap="round" stroke-width="4" />
<path d="M515,455 L545,455" stroke="black" stroke-linecap="round" stroke-width="4" />
<path d="M515,425 L515,395" stroke="black" stroke-linecap="round" stroke-width="4" />
<path d="M515,395 L545,395" stroke="black" stroke-linecap="round" stroke-width="4" />
<path d="M515,365 L515,335" stroke="black" stroke-linecap="round" stroke-width="4" />
<path d="M515,365 L545,365" stroke="black" stroke-linecap="round" stroke-width="4" />
<path d="M515,305 L515,275" stroke="black" stroke-linecap="round" stroke-width="4" />
<path d="M515,305 L545,305" stroke="black" stroke-linecap="round" stroke-width="4" />
<path d="M515,275 L515,245" stroke="black" stroke-linecap="round" stroke-width="4" />
<path d="M515,245 L515,215" stroke="black" stroke-linecap="round" stroke-width="4" />
<path d="M515,245 L545,245" stroke="black" stroke-linecap="round" stroke-width="4" />
<path d="M515,215 L515,185" stroke="black" stroke-linecap="round" stroke-width="4" />
<path d="M515,65 L515,35" stroke="black" stroke-linecap="round" stroke-width="4" />
<path d="M515,65 L545,65" stroke="black" stroke-linecap="round" stroke-width="4" />
<path d="M545,485 L545,455" stroke="black" stroke-linecap="round" stroke-width="4" />
<path d="M545,425 L575,425" stroke="black" stroke-linecap="round" stroke-width="4" />
<path d="M545,395 L575,395" stroke="black" stroke-linecap="round" stroke-width="4" />
<path d="M545,335 L545,305" stroke="black" stroke-linecap="round" stroke-width="4" />
<path d="M545,305 L575,305" stroke="black" stroke-linecap="round" stroke-width="4" />
<path d="M545,275 L545,245" stroke="black" stroke-linecap="round" stroke-width="4" />
<path d="M545,275 L575,275" stroke="black" stroke-linecap="round" stroke-width="4" />
<path d="M545,245 L545,215" stroke="black" stroke-linecap="round" stroke-width="4" />
<path d="M545,215 L575,215" stroke="black" stroke-linecap="round" stroke-width="4" />
<path d="M545,185 L545,155" stroke="black" stroke-linecap="round" stroke-width="4" />
<path d="M545,185 L575,185" stroke="black" stroke-linecap="round" stroke-width="4" />
<path d="M545,155 L575,155" stroke="black" stroke-linecap="round" stroke-width="4" />
<path d="M545,125 L545,95" stroke="black" stroke-linecap="round" stroke-width="4" />
<path d="M545,125 L575,125" stroke="black" stroke-linecap="round" stroke-width="4" />
<path d="M545,95 L575,95" stroke="black" stroke-linecap="round" stroke-width="4" />
<path d="M545,65 L545,35" stroke="black" stroke-linecap="round" stroke-width="4" />
<path d="M545,65 L575,65" stroke="black" stroke-linecap="round" stroke-width="4" />
<path d="M575,485 L575,455" stroke="black" stroke-linecap="round" stroke-width="4" />
<path d="M575,425 L605,425" stroke="black" stroke-linecap="round" stroke-width="4" />
<path d="M575,365 L605,365" stroke="black" stroke-linecap="round" stroke-width="4" />
<path d="M575,335 L605,335" stroke="black" stroke-linecap="round" stroke-width="4" />
<path d="M575,245 L605,245" stroke="black" stroke-linecap="round" stroke-width="4" />
<path d="M575,215 L575,185" stroke="black" stroke-linecap="round" stroke-width="4" />
<path d="M575,215 L605,215" stroke="black" stroke-linecap="round" stroke-width="4" />
<path d="M575,125 L605,125" stroke="black" stroke-linecap="round" stroke-width="4" />
<path d="M575,35 L605,35" stroke="black" stroke-linecap="round" stroke-width="4" />
</svg>